<mxfile host="65bd71144e">
    <diagram id="RzdB1_ECVK01WcsdOi-J" name="sodo">
        <mxGraphModel dx="1374" dy="790" grid="1" gridSize="10" guides="1" tooltips="1" connect="1" arrows="1" fold="1" page="1" pageScale="1" pageWidth="1169" pageHeight="827" background="none" math="0" shadow="0">
            <root>
                <mxCell id="0"/>
                <mxCell id="1" parent="0"/>
                <mxCell id="539" value="&lt;u&gt;勤怠表集約&lt;/u&gt;" style="rounded=0;whiteSpace=wrap;html=1;verticalAlign=top;" parent="1" vertex="1">
                    <mxGeometry x="10" y="1360" width="280" height="210" as="geometry"/>
                </mxCell>
                <mxCell id="534" value="" style="rounded=0;whiteSpace=wrap;html=1;fontSize=16;" parent="1" vertex="1">
                    <mxGeometry x="530" y="1370" width="300" height="140" as="geometry"/>
                </mxCell>
                <mxCell id="530" value="" style="rounded=0;whiteSpace=wrap;html=1;fontSize=16;" parent="1" vertex="1">
                    <mxGeometry x="530" y="1210" width="300" height="150" as="geometry"/>
                </mxCell>
                <mxCell id="IUCaD1viUXP5vsJWslPz-526" value="" style="rounded=0;whiteSpace=wrap;html=1;fontSize=16;" parent="1" vertex="1">
                    <mxGeometry x="530" y="870" width="200" height="310" as="geometry"/>
                </mxCell>
                <mxCell id="363" value="&lt;u&gt;就業月報集約&lt;/u&gt;" style="rounded=0;whiteSpace=wrap;html=1;verticalAlign=top;" parent="1" vertex="1">
                    <mxGeometry x="10" y="870" width="180" height="340" as="geometry"/>
                </mxCell>
                <mxCell id="240" value="&lt;u&gt;CNCモニタ自動レポート&lt;/u&gt;" style="rounded=0;whiteSpace=wrap;html=1;verticalAlign=top;" parent="1" vertex="1">
                    <mxGeometry x="940" y="50" width="210" height="210" as="geometry"/>
                </mxCell>
                <mxCell id="164" style="edgeStyle=none;html=1;fontColor=#FF0000;endArrow=none;endFill=0;dashed=1;startArrow=none;" parent="1" source="5" target="158" edge="1">
                    <mxGeometry relative="1" as="geometry"/>
                </mxCell>
                <mxCell id="459" style="edgeStyle=none;html=1;endArrow=none;endFill=0;" parent="1" source="5" target="451" edge="1">
                    <mxGeometry relative="1" as="geometry"/>
                </mxCell>
                <mxCell id="121" value="" style="rounded=0;whiteSpace=wrap;html=1;fillColor=none;dashed=1;" parent="1" vertex="1">
                    <mxGeometry x="130" y="110" width="150" height="80" as="geometry"/>
                </mxCell>
                <mxCell id="2" value="システム関連図" style="text;html=1;strokeColor=none;fillColor=none;align=center;verticalAlign=middle;whiteSpace=wrap;rounded=0;" parent="1" vertex="1">
                    <mxGeometry x="40" y="20" width="100" height="20" as="geometry"/>
                </mxCell>
                <mxCell id="248" style="edgeStyle=none;html=1;endArrow=none;endFill=0;" parent="1" source="5" target="249" edge="1">
                    <mxGeometry relative="1" as="geometry">
                        <mxPoint x="115" y="150" as="targetPoint"/>
                    </mxGeometry>
                </mxCell>
                <mxCell id="254" style="edgeStyle=none;html=1;fontColor=#009900;endArrow=none;endFill=0;" parent="1" source="5" target="253" edge="1">
                    <mxGeometry relative="1" as="geometry"/>
                </mxCell>
                <mxCell id="518" style="edgeStyle=none;html=1;endArrow=none;endFill=0;" parent="1" source="5" target="517" edge="1">
                    <mxGeometry relative="1" as="geometry"/>
                </mxCell>
                <mxCell id="524" style="edgeStyle=none;html=1;fontSize=13;fontColor=#FF0000;endArrow=none;endFill=0;" parent="1" source="5" target="523" edge="1">
                    <mxGeometry relative="1" as="geometry"/>
                </mxCell>
                <mxCell id="5" value="勤怠表検証システム" style="rounded=1;whiteSpace=wrap;html=1;" parent="1" vertex="1">
                    <mxGeometry x="140" y="130" width="130" height="40" as="geometry"/>
                </mxCell>
                <mxCell id="21" value="ユースケース図" style="text;html=1;strokeColor=none;fillColor=none;align=center;verticalAlign=middle;whiteSpace=wrap;rounded=0;" parent="1" vertex="1">
                    <mxGeometry x="740" y="20" width="100" height="20" as="geometry"/>
                </mxCell>
                <mxCell id="33" value="ドメインモデル図" style="text;html=1;strokeColor=none;fillColor=none;align=center;verticalAlign=middle;whiteSpace=wrap;rounded=0;" parent="1" vertex="1">
                    <mxGeometry x="40" y="840" width="110" height="20" as="geometry"/>
                </mxCell>
                <mxCell id="123" style="edgeStyle=none;html=1;endArrow=none;endFill=0;" parent="1" source="122" target="121" edge="1">
                    <mxGeometry relative="1" as="geometry"/>
                </mxCell>
                <mxCell id="122" value="今回開発する範囲" style="text;html=1;strokeColor=none;fillColor=none;align=center;verticalAlign=middle;whiteSpace=wrap;rounded=0;" parent="1" vertex="1">
                    <mxGeometry x="10" y="70" width="140" height="30" as="geometry"/>
                </mxCell>
                <mxCell id="260" style="edgeStyle=none;html=1;fontColor=#009900;endArrow=none;endFill=0;" parent="1" source="238" target="259" edge="1">
                    <mxGeometry relative="1" as="geometry"/>
                </mxCell>
                <mxCell id="546" style="edgeStyle=none;html=1;endArrow=none;endFill=0;" parent="1" source="238" target="544" edge="1">
                    <mxGeometry relative="1" as="geometry"/>
                </mxCell>
                <mxCell id="547" style="edgeStyle=none;html=1;endArrow=none;endFill=0;" parent="1" source="238" target="545" edge="1">
                    <mxGeometry relative="1" as="geometry"/>
                </mxCell>
                <mxCell id="238" value="総務課担当者&lt;br&gt;" style="shape=umlActor;verticalLabelPosition=bottom;verticalAlign=top;html=1;outlineConnect=0;" parent="1" vertex="1">
                    <mxGeometry x="790" y="75" width="30" height="60" as="geometry"/>
                </mxCell>
                <mxCell id="249" value="総務課担当者" style="shape=umlActor;verticalLabelPosition=bottom;verticalAlign=top;html=1;outlineConnect=0;" parent="1" vertex="1">
                    <mxGeometry x="40" y="120" width="30" height="60" as="geometry"/>
                </mxCell>
                <mxCell id="520" style="edgeStyle=none;html=1;fontSize=12;endArrow=none;endFill=0;dashed=1;" parent="1" source="253" target="519" edge="1">
                    <mxGeometry relative="1" as="geometry"/>
                </mxCell>
                <mxCell id="259" value="勤怠エクセルと給与システムCSVを同異判定する" style="rounded=1;whiteSpace=wrap;html=1;" parent="1" vertex="1">
                    <mxGeometry x="955" y="85" width="180" height="40" as="geometry"/>
                </mxCell>
                <mxCell id="372" value="オブジェクト図" style="text;html=1;strokeColor=none;fillColor=none;align=center;verticalAlign=middle;whiteSpace=wrap;rounded=0;" parent="1" vertex="1">
                    <mxGeometry x="520" y="840" width="100" height="20" as="geometry"/>
                </mxCell>
                <mxCell id="522" style="edgeStyle=none;html=1;dashed=1;fontSize=12;endArrow=none;endFill=0;" parent="1" source="451" target="521" edge="1">
                    <mxGeometry relative="1" as="geometry"/>
                </mxCell>
                <mxCell id="451" value="勤怠エクセルファイル" style="rounded=1;whiteSpace=wrap;html=1;" parent="1" vertex="1">
                    <mxGeometry x="417.5" y="40" width="140" height="40" as="geometry"/>
                </mxCell>
                <mxCell id="465" value="(就業月報)&lt;br&gt;勤怠個人コード: 0202&lt;br&gt;出勤日数: 20.00&lt;br&gt;休日出勤数: 1&lt;br&gt;有休日数: 0&lt;br&gt;欠勤日数: 0&lt;br&gt;振休出勤日数: 0&lt;br&gt;有休特別休暇日数: 0&lt;br&gt;遅刻回数: 0&lt;br&gt;早退回数: 0&lt;br&gt;休業日数: 0&lt;br&gt;教育日数: 0&lt;br&gt;所定時間: 160.00&lt;br&gt;早出残業時間: 33.00&lt;br&gt;深夜勤務時間: 65.00&lt;br&gt;法定休出勤時間: 0.00&lt;br&gt;法定外休出勤時間: 8.00&lt;br&gt;変則時間: 69.50&lt;br&gt;弁当注文数: 0" style="rounded=1;whiteSpace=wrap;html=1;verticalAlign=middle;align=center;fillColor=#60a917;strokeColor=#2D7600;fontColor=#ffffff;" parent="1" vertex="1">
                    <mxGeometry x="550" y="881" width="160" height="289" as="geometry"/>
                </mxCell>
                <mxCell id="513" value="&lt;span style=&quot;color: rgb(255 , 255 , 255)&quot;&gt;&lt;u&gt;就業月報&lt;/u&gt;&lt;/span&gt;&lt;br&gt;(WorkedMonthlyReport&lt;span&gt;)&lt;/span&gt;&lt;br style=&quot;color: rgb(255 , 255 , 255)&quot;&gt;&lt;span style=&quot;color: rgb(255 , 255 , 255)&quot;&gt;勤怠個人コード&lt;/span&gt;&lt;br style=&quot;color: rgb(255 , 255 , 255)&quot;&gt;&lt;span style=&quot;color: rgb(255 , 255 , 255)&quot;&gt;出勤日数&lt;/span&gt;&lt;br style=&quot;color: rgb(255 , 255 , 255)&quot;&gt;&lt;span style=&quot;color: rgb(255 , 255 , 255)&quot;&gt;休日出勤数&lt;/span&gt;&lt;br style=&quot;color: rgb(255 , 255 , 255)&quot;&gt;&lt;span style=&quot;color: rgb(255 , 255 , 255)&quot;&gt;有休日数&lt;/span&gt;&lt;br style=&quot;color: rgb(255 , 255 , 255)&quot;&gt;&lt;span style=&quot;color: rgb(255 , 255 , 255)&quot;&gt;欠勤日数&lt;/span&gt;&lt;br style=&quot;color: rgb(255 , 255 , 255)&quot;&gt;&lt;span style=&quot;color: rgb(255 , 255 , 255)&quot;&gt;振休出勤日数&lt;/span&gt;&lt;br style=&quot;color: rgb(255 , 255 , 255)&quot;&gt;&lt;span style=&quot;color: rgb(255 , 255 , 255)&quot;&gt;有休特別休暇日数&lt;/span&gt;&lt;br style=&quot;color: rgb(255 , 255 , 255)&quot;&gt;&lt;span style=&quot;color: rgb(255 , 255 , 255)&quot;&gt;遅刻回数&lt;/span&gt;&lt;br style=&quot;color: rgb(255 , 255 , 255)&quot;&gt;&lt;span style=&quot;color: rgb(255 , 255 , 255)&quot;&gt;早退回数&lt;/span&gt;&lt;br style=&quot;color: rgb(255 , 255 , 255)&quot;&gt;&lt;span style=&quot;color: rgb(255 , 255 , 255)&quot;&gt;休業日数&lt;/span&gt;&lt;br style=&quot;color: rgb(255 , 255 , 255)&quot;&gt;&lt;span style=&quot;color: rgb(255 , 255 , 255)&quot;&gt;教育日数&lt;/span&gt;&lt;br style=&quot;color: rgb(255 , 255 , 255)&quot;&gt;&lt;span style=&quot;color: rgb(255 , 255 , 255)&quot;&gt;所定時間&lt;/span&gt;&lt;br style=&quot;color: rgb(255 , 255 , 255)&quot;&gt;&lt;span style=&quot;color: rgb(255 , 255 , 255)&quot;&gt;早出残業時間&lt;/span&gt;&lt;br style=&quot;color: rgb(255 , 255 , 255)&quot;&gt;&lt;span style=&quot;color: rgb(255 , 255 , 255)&quot;&gt;深夜勤務時間&lt;/span&gt;&lt;br style=&quot;color: rgb(255 , 255 , 255)&quot;&gt;&lt;span style=&quot;color: rgb(255 , 255 , 255)&quot;&gt;法定休出勤時間&lt;/span&gt;&lt;br style=&quot;color: rgb(255 , 255 , 255)&quot;&gt;&lt;span style=&quot;color: rgb(255 , 255 , 255)&quot;&gt;法定外休出勤時間&lt;/span&gt;&lt;br style=&quot;color: rgb(255 , 255 , 255)&quot;&gt;&lt;span style=&quot;color: rgb(255 , 255 , 255)&quot;&gt;変則時間&lt;/span&gt;&lt;br style=&quot;color: rgb(255 , 255 , 255)&quot;&gt;&lt;span style=&quot;color: rgb(255 , 255 , 255)&quot;&gt;弁当注文数&lt;/span&gt;" style="rounded=1;whiteSpace=wrap;html=1;verticalAlign=middle;align=center;" parent="1" vertex="1">
                    <mxGeometry x="28.76" y="900" width="141.24" height="300" as="geometry"/>
                </mxCell>
                <mxCell id="517" value="給与システム連携CSV" style="rounded=1;whiteSpace=wrap;html=1;" parent="1" vertex="1">
                    <mxGeometry x="407.5" y="104" width="150" height="40" as="geometry"/>
                </mxCell>
                <mxCell id="526" style="edgeStyle=none;html=1;fontSize=13;fontColor=#FF0000;endArrow=none;endFill=0;dashed=1;" parent="1" source="523" target="525" edge="1">
                    <mxGeometry relative="1" as="geometry"/>
                </mxCell>
                <mxCell id="523" value="&lt;span style=&quot;color: rgb(255 , 255 , 255)&quot;&gt;勤怠&lt;/span&gt;個人コード 社員番号対応データ" style="rounded=1;whiteSpace=wrap;html=1;" parent="1" vertex="1">
                    <mxGeometry x="330" y="184" width="227.5" height="40" as="geometry"/>
                </mxCell>
                <mxCell id="525" value="&lt;span style=&quot;font-size: 13px&quot;&gt;・総務課が準備する&lt;br&gt;&lt;/span&gt;・処理開始時に確認 対応表にない人物を見つけたら登録させる&lt;br&gt;&lt;span style=&quot;font-size: 13px&quot;&gt;・CSVファイルを用意する (案)&lt;br&gt;・追記式 削除/変更は必要になったら考える&lt;br style=&quot;font-size: 13px&quot;&gt;&lt;/span&gt;" style="rounded=0;whiteSpace=wrap;html=1;align=left;verticalAlign=top;fontSize=13;" parent="1" vertex="1">
                    <mxGeometry x="601.25" y="364" width="290" height="100" as="geometry"/>
                </mxCell>
                <mxCell id="519" value="&lt;span style=&quot;font-size: 13px&quot;&gt;・総務課が準備する&lt;/span&gt;&amp;nbsp;(案)&lt;span style=&quot;font-size: 13px&quot;&gt;&lt;br style=&quot;font-size: 13px&quot;&gt;・作成サイクルは年1度&lt;br style=&quot;font-size: 13px&quot;&gt;&lt;/span&gt;&lt;span style=&quot;font-size: 13px&quot;&gt;・CSVファイルを用意する (案)&lt;br&gt;・法定休日かそれ以外か見分けられること&lt;br style=&quot;font-size: 13px&quot;&gt;&lt;/span&gt;" style="rounded=0;whiteSpace=wrap;html=1;align=left;verticalAlign=top;fontSize=13;" parent="1" vertex="1">
                    <mxGeometry x="601.25" y="486" width="265" height="100" as="geometry"/>
                </mxCell>
                <mxCell id="253" value="和田カレンダーのデータ" style="rounded=1;whiteSpace=wrap;html=1;" parent="1" vertex="1">
                    <mxGeometry x="407.5" y="243" width="150" height="40" as="geometry"/>
                </mxCell>
                <mxCell id="158" value="&lt;span style=&quot;font-size: 13px&quot;&gt;・日報入力システム実現のための、外部アプリケーションとして作成する。&lt;br style=&quot;font-size: 13px&quot;&gt;&lt;/span&gt;&lt;span style=&quot;font-size: 13px&quot;&gt;・給与システム連携CSVファイルと勤怠エクセルとの検証を行い&lt;/span&gt;異同&lt;span style=&quot;font-size: 13px&quot;&gt;判定を行う&lt;br&gt;&lt;br&gt;・画面作成は、簡易版で公開し、のちに正式版に更新する&lt;br&gt;・簡易版画面では、&lt;br&gt;&lt;/span&gt;&lt;span&gt;&lt;/span&gt;　　・簡易な&lt;span style=&quot;font-size: 13px&quot;&gt;入力枠&lt;br&gt;&lt;span&gt;&lt;/span&gt;　　・入力値の不正チェックはしない&lt;br&gt;&lt;span&gt;&lt;/span&gt;　　・対象課の増減機能は実装しない&lt;br&gt;　　・個人コード社員番号対応データ/和田カレンダーデータは、初期データとして登録しておき、取り込み機能は後から更新する&lt;br&gt;・人数確認&lt;/span&gt;はしない&lt;span style=&quot;font-size: 13px&quot;&gt;(etc:10人所属する課のデータが9人分しかない)&lt;br&gt;・深夜勤務は、22:00~5:00&lt;br&gt;・変則勤務は、17:00以降に勤務した人AND、22:00~8:00 に勤務した時間の合計&lt;br&gt;・所定時間は、出勤日数 x 残業を除く1日の勤務時間&lt;br&gt;&lt;font&gt;・勤務区分のカウントする&lt;br&gt;　　・出勤日数&lt;br&gt;　　・有給休暇(AM/PM)&lt;br&gt;　　・振替出勤&lt;br&gt;　　・休日出勤(&lt;/font&gt;&lt;/span&gt;法定内/外休日出勤数の合計&lt;span style=&quot;font-size: 13px&quot;&gt;&lt;font&gt;)&lt;br&gt;　　・有給特別休暇&lt;br&gt;　　・欠勤&lt;br&gt;　　・早退&lt;br&gt;　　・遅刻&lt;br&gt;　　・休業&lt;/font&gt;&lt;/span&gt;(AM/PM)&lt;span style=&quot;font-size: 13px&quot;&gt;&lt;font&gt;&lt;br&gt;・特A日数は有給の特別休暇日数&lt;br&gt;・休日出勤日数/振替出勤数は、申請の通りカウントする&lt;br&gt;・振休/振出 代休/休出の数が対になっているかどうかは 当月内外かかわらず考慮しない&lt;br&gt;・早出残業は残業の事 勤務開始時間から8時間を超えた分を残業とする&lt;br&gt;・いわきゅうは、弁当を注文した日数&lt;/font&gt;&lt;br style=&quot;font-size: 13px&quot;&gt;&lt;/span&gt;" style="rounded=0;whiteSpace=wrap;html=1;align=left;verticalAlign=top;fontSize=13;fontColor=default;" parent="1" vertex="1">
                    <mxGeometry x="10" y="301" width="550" height="509" as="geometry"/>
                </mxCell>
                <mxCell id="521" value="&lt;span style=&quot;font-size: 13px;&quot;&gt;・日報入力システムの成果物を対象とするが、システム立ち上げ前は、手入力の勤怠エクセルを対象とする&lt;br style=&quot;font-size: 13px;&quot;&gt;&lt;/span&gt;・各課ごとにフォルダにまとめて保存&lt;br style=&quot;font-size: 13px;&quot;&gt;・1人1ファイル" style="rounded=0;whiteSpace=wrap;html=1;align=left;verticalAlign=top;fontSize=13;" parent="1" vertex="1">
                    <mxGeometry x="601.25" y="201" width="297.5" height="100" as="geometry"/>
                </mxCell>
                <mxCell id="IUCaD1viUXP5vsJWslPz-528" style="html=1;fontSize=16;dashed=1;endArrow=none;endFill=0;" parent="1" source="IUCaD1viUXP5vsJWslPz-527" target="IUCaD1viUXP5vsJWslPz-526" edge="1">
                    <mxGeometry relative="1" as="geometry"/>
                </mxCell>
                <mxCell id="IUCaD1viUXP5vsJWslPz-527" value="&lt;span style=&quot;font-size: 13px&quot;&gt;休日出勤した&lt;br style=&quot;font-size: 13px&quot;&gt;&lt;/span&gt;" style="rounded=0;whiteSpace=wrap;html=1;align=left;verticalAlign=top;fontSize=13;spacing=2;" parent="1" vertex="1">
                    <mxGeometry x="740" y="870" width="100" height="30" as="geometry"/>
                </mxCell>
                <mxCell id="IUCaD1viUXP5vsJWslPz-529" value="&lt;span style=&quot;font-size: 13px&quot;&gt;欠勤 早退した&lt;br style=&quot;font-size: 13px&quot;&gt;&lt;/span&gt;" style="rounded=0;whiteSpace=wrap;html=1;align=left;verticalAlign=top;fontSize=13;spacing=2;" parent="1" vertex="1">
                    <mxGeometry x="1060" y="870" width="100" height="30" as="geometry"/>
                </mxCell>
                <mxCell id="IUCaD1viUXP5vsJWslPz-530" value="" style="rounded=0;whiteSpace=wrap;html=1;fontSize=16;" parent="1" vertex="1">
                    <mxGeometry x="850" y="870" width="200" height="310" as="geometry"/>
                </mxCell>
                <mxCell id="IUCaD1viUXP5vsJWslPz-531" value="(就業月報)&lt;br&gt;勤怠個人コード: 0254&lt;br&gt;出勤日数: 15.00&lt;br&gt;休日出勤数: 0&lt;br&gt;有休日数: 0&lt;br&gt;欠勤日数: 5&lt;br&gt;振休出勤日数: 0&lt;br&gt;有休特別休暇日数: 0&lt;br&gt;遅刻回数: 0&lt;br&gt;早退回数: 4&lt;br&gt;休業日数: 0&lt;br&gt;教育日数: 0&lt;br&gt;所定時間: 102.00&lt;br&gt;早出残業時間: 000&lt;br&gt;深夜勤務時間: 0.00&lt;br&gt;法定休出勤時間: 0.00&lt;br&gt;法定外休出勤時間: 0.00&lt;br&gt;変則時間: 0.00&lt;br&gt;弁当注文数: 0" style="rounded=1;whiteSpace=wrap;html=1;verticalAlign=middle;align=center;fillColor=#60a917;strokeColor=#2D7600;fontColor=#ffffff;" parent="1" vertex="1">
                    <mxGeometry x="870" y="881" width="160" height="289" as="geometry"/>
                </mxCell>
                <mxCell id="IUCaD1viUXP5vsJWslPz-532" style="html=1;fontSize=16;dashed=1;endArrow=none;endFill=0;" parent="1" source="IUCaD1viUXP5vsJWslPz-529" target="IUCaD1viUXP5vsJWslPz-530" edge="1">
                    <mxGeometry relative="1" as="geometry"/>
                </mxCell>
                <mxCell id="553" style="edgeStyle=none;html=1;endArrow=none;endFill=0;" parent="1" source="527" target="551" edge="1">
                    <mxGeometry relative="1" as="geometry"/>
                </mxCell>
                <mxCell id="527" value="&lt;span style=&quot;color: rgb(255 , 255 , 255)&quot;&gt;&lt;u&gt;勤怠&lt;/u&gt;&lt;/span&gt;&lt;br&gt;(AttendanceTable&lt;span&gt;)&lt;/span&gt;&lt;br style=&quot;color: rgb(255 , 255 , 255)&quot;&gt;&lt;span style=&quot;color: rgb(255 , 255 , 255)&quot;&gt;社員番号&lt;br&gt;年&lt;br&gt;月&lt;/span&gt;" style="rounded=1;whiteSpace=wrap;html=1;verticalAlign=middle;align=center;" parent="1" vertex="1">
                    <mxGeometry x="25" y="1390" width="120" height="80" as="geometry"/>
                </mxCell>
                <mxCell id="557" style="edgeStyle=none;html=1;endArrow=none;endFill=0;" parent="1" source="528" target="555" edge="1">
                    <mxGeometry relative="1" as="geometry"/>
                </mxCell>
                <mxCell id="528" value="(勤怠)&lt;br&gt;社員番号: 1518&lt;br&gt;年: 2022&lt;br&gt;月: 10" style="rounded=1;whiteSpace=wrap;html=1;verticalAlign=middle;align=center;fillColor=#60a917;strokeColor=#2D7600;fontColor=#ffffff;" parent="1" vertex="1">
                    <mxGeometry x="550" y="1240" width="100" height="70" as="geometry"/>
                </mxCell>
                <mxCell id="533" style="edgeStyle=none;html=1;dashed=1;endArrow=none;endFill=0;" parent="1" source="531" target="530" edge="1">
                    <mxGeometry relative="1" as="geometry"/>
                </mxCell>
                <mxCell id="531" value="&lt;span style=&quot;font-size: 13px&quot;&gt;通常出勤&lt;br style=&quot;font-size: 13px&quot;&gt;&lt;/span&gt;" style="rounded=0;whiteSpace=wrap;html=1;align=left;verticalAlign=top;fontSize=13;spacing=2;" parent="1" vertex="1">
                    <mxGeometry x="840" y="1211" width="100" height="30" as="geometry"/>
                </mxCell>
                <mxCell id="535" style="edgeStyle=none;html=1;dashed=1;endArrow=none;endFill=0;" parent="1" source="536" target="534" edge="1">
                    <mxGeometry relative="1" as="geometry"/>
                </mxCell>
                <mxCell id="536" value="&lt;span style=&quot;font-size: 13px&quot;&gt;有給休暇&lt;br style=&quot;font-size: 13px&quot;&gt;&lt;/span&gt;" style="rounded=0;whiteSpace=wrap;html=1;align=left;verticalAlign=top;fontSize=13;spacing=2;" parent="1" vertex="1">
                    <mxGeometry x="840" y="1370" width="100" height="30" as="geometry"/>
                </mxCell>
                <mxCell id="538" style="edgeStyle=none;html=1;dashed=1;endArrow=none;endFill=0;" parent="1" source="537" target="551" edge="1">
                    <mxGeometry relative="1" as="geometry"/>
                </mxCell>
                <mxCell id="537" value="休日区分は&lt;br&gt;法定、法定外&lt;br&gt;和田カレンダー上の設定のままとし、振替の変化は休暇区分で表現する&lt;br&gt;&lt;br&gt;休暇区分は&lt;br&gt;有休,AM有,PM有,振休,振出,休出,有給特休,無給特休,欠勤,休業,AM休業,PM休業&lt;br&gt;&lt;br&gt;弁当注文は勤怠表に項目がないので未使用" style="rounded=0;whiteSpace=wrap;html=1;align=left;verticalAlign=top;fontSize=13;spacing=2;" parent="1" vertex="1">
                    <mxGeometry x="200" y="1051" width="250" height="170" as="geometry"/>
                </mxCell>
                <mxCell id="540" value="勤怠表に追加する項目&lt;br&gt;社員番号&lt;br&gt;弁当注文" style="rounded=0;whiteSpace=wrap;html=1;align=left;verticalAlign=top;fontSize=13;spacing=2;" parent="1" vertex="1">
                    <mxGeometry x="340" y="1270" width="172.5" height="80" as="geometry"/>
                </mxCell>
                <mxCell id="541" value="社員番号：&lt;br&gt;受注管理上の社員番号&lt;br&gt;&lt;br&gt;勤怠個人コード&lt;br&gt;勤怠システム上の個人コード&lt;br&gt;社員番号の番号" style="rounded=0;whiteSpace=wrap;html=1;align=left;verticalAlign=top;fontSize=13;spacing=2;" parent="1" vertex="1">
                    <mxGeometry x="615" y="630" width="235" height="120" as="geometry"/>
                </mxCell>
                <mxCell id="542" value="&lt;u&gt;自社カレンダー集約&lt;/u&gt;" style="rounded=0;whiteSpace=wrap;html=1;verticalAlign=top;" parent="1" vertex="1">
                    <mxGeometry x="24.380000000000003" y="1710" width="161.24" height="120" as="geometry"/>
                </mxCell>
                <mxCell id="543" value="&lt;font color=&quot;#ffffff&quot;&gt;&lt;u&gt;自社カレンダー&lt;/u&gt;&lt;/font&gt;&lt;br&gt;(MyCompanyCalendar&lt;span&gt;)&lt;/span&gt;&lt;br style=&quot;color: rgb(255 , 255 , 255)&quot;&gt;&lt;span style=&quot;color: rgb(255 , 255 , 255)&quot;&gt;日付&lt;br&gt;法定休日&lt;br&gt;&lt;/span&gt;" style="rounded=1;whiteSpace=wrap;html=1;verticalAlign=middle;align=center;" parent="1" vertex="1">
                    <mxGeometry x="39.379999999999995" y="1740" width="136.24" height="70" as="geometry"/>
                </mxCell>
                <mxCell id="544" value="自社カレンダーを登録する" style="rounded=1;whiteSpace=wrap;html=1;" parent="1" vertex="1">
                    <mxGeometry x="955" y="140" width="180" height="40" as="geometry"/>
                </mxCell>
                <mxCell id="545" value="社員番号対応表を登録する" style="rounded=1;whiteSpace=wrap;html=1;" parent="1" vertex="1">
                    <mxGeometry x="955" y="190" width="180" height="40" as="geometry"/>
                </mxCell>
                <mxCell id="548" value="&lt;u&gt;社員番号対応表集約&lt;/u&gt;" style="rounded=0;whiteSpace=wrap;html=1;verticalAlign=top;" parent="1" vertex="1">
                    <mxGeometry x="200" y="1710" width="185.62" height="120" as="geometry"/>
                </mxCell>
                <mxCell id="549" value="&lt;font color=&quot;#ffffff&quot;&gt;&lt;u&gt;社員番号対応表&lt;/u&gt;&lt;/font&gt;&lt;br&gt;(MatchedEmployeeNumber&lt;span&gt;)&lt;/span&gt;&lt;br style=&quot;color: rgb(255 , 255 , 255)&quot;&gt;&lt;span style=&quot;color: rgb(255 , 255 , 255)&quot;&gt;社員番号&lt;br&gt;勤怠個人コード&lt;br&gt;&lt;/span&gt;" style="rounded=1;whiteSpace=wrap;html=1;verticalAlign=middle;align=center;" parent="1" vertex="1">
                    <mxGeometry x="215" y="1740" width="160.62" height="70" as="geometry"/>
                </mxCell>
                <mxCell id="551" value="&lt;span style=&quot;color: rgb(255 , 255 , 255)&quot;&gt;&lt;u&gt;勤怠&lt;/u&gt;&lt;/span&gt;&lt;br&gt;(AttendanceRecord&lt;span&gt;)&lt;/span&gt;&lt;br style=&quot;color: rgb(255 , 255 , 255)&quot;&gt;日付&lt;br&gt;休日区分&lt;br&gt;休暇区分&lt;br style=&quot;color: rgb(255 , 255 , 255)&quot;&gt;&lt;font color=&quot;#ffffff&quot;&gt;始業時間&lt;br&gt;&lt;/font&gt;終業時間&lt;br&gt;休憩時間&lt;br&gt;弁当注文" style="rounded=1;whiteSpace=wrap;html=1;verticalAlign=middle;align=center;" parent="1" vertex="1">
                    <mxGeometry x="160" y="1390" width="120" height="130" as="geometry"/>
                </mxCell>
                <mxCell id="554" value="(勤怠)&lt;br&gt;日付: 2022/10/3&lt;br&gt;休日区分:&lt;br&gt;休暇区分: 有休&lt;br&gt;始業時間:&amp;nbsp;&lt;br&gt;終業時間:&amp;nbsp;&lt;br&gt;休憩時間:&amp;nbsp;&lt;br&gt;弁当注文:&amp;nbsp;" style="rounded=1;whiteSpace=wrap;html=1;verticalAlign=middle;align=center;fillColor=#60a917;strokeColor=#2D7600;fontColor=#ffffff;" parent="1" vertex="1">
                    <mxGeometry x="660" y="1380" width="160" height="120" as="geometry"/>
                </mxCell>
                <mxCell id="555" value="(勤怠)&lt;br&gt;日付: 2022/10/1&lt;br&gt;休日区分:&amp;nbsp;&lt;br&gt;休暇区分:&lt;br&gt;始業時間:2022/10/1&amp;nbsp;8:00&lt;br&gt;終業時間:2022/10/1&amp;nbsp;17:00&lt;br&gt;休憩時間: 1:00&lt;br&gt;弁当注文: 否" style="rounded=1;whiteSpace=wrap;html=1;verticalAlign=middle;align=center;fillColor=#60a917;strokeColor=#2D7600;fontColor=#ffffff;" parent="1" vertex="1">
                    <mxGeometry x="660" y="1221" width="160" height="120" as="geometry"/>
                </mxCell>
                <mxCell id="558" style="edgeStyle=none;html=1;endArrow=none;endFill=0;" parent="1" source="556" target="554" edge="1">
                    <mxGeometry relative="1" as="geometry"/>
                </mxCell>
                <mxCell id="556" value="(勤怠)&lt;br&gt;社員番号: 1518&lt;br&gt;年: 2022&lt;br&gt;月: 10" style="rounded=1;whiteSpace=wrap;html=1;verticalAlign=middle;align=center;fillColor=#60a917;strokeColor=#2D7600;fontColor=#ffffff;" parent="1" vertex="1">
                    <mxGeometry x="550" y="1400" width="100" height="70" as="geometry"/>
                </mxCell>
                <mxCell id="560" value="" style="rounded=0;whiteSpace=wrap;html=1;fontSize=16;" parent="1" vertex="1">
                    <mxGeometry x="530" y="1520" width="300" height="130" as="geometry"/>
                </mxCell>
                <mxCell id="561" value="(勤怠)&lt;br&gt;日付: 2022/10/23&lt;br&gt;休日区分:&amp;nbsp;&lt;br&gt;休暇区分:&lt;br&gt;始業時間:2022/10/11&amp;nbsp;22:00&lt;br&gt;終業時間:2022/10/12 8:00&lt;br&gt;休憩時間: 1:00&lt;br&gt;弁当注文: 否" style="rounded=1;whiteSpace=wrap;html=1;verticalAlign=middle;align=center;fillColor=#60a917;strokeColor=#2D7600;fontColor=#ffffff;" parent="1" vertex="1">
                    <mxGeometry x="666.25" y="1525.5" width="160" height="119" as="geometry"/>
                </mxCell>
                <mxCell id="565" style="edgeStyle=none;html=1;endArrow=none;endFill=0;" parent="1" source="562" target="561" edge="1">
                    <mxGeometry relative="1" as="geometry"/>
                </mxCell>
                <mxCell id="562" value="(勤怠)&lt;br&gt;社員番号: 1518&lt;br&gt;年: 2022&lt;br&gt;月: 10" style="rounded=1;whiteSpace=wrap;html=1;verticalAlign=middle;align=center;fillColor=#60a917;strokeColor=#2D7600;fontColor=#ffffff;" parent="1" vertex="1">
                    <mxGeometry x="550" y="1550" width="100" height="70" as="geometry"/>
                </mxCell>
                <mxCell id="564" style="edgeStyle=none;html=1;endArrow=none;endFill=0;dashed=1;" parent="1" source="563" target="560" edge="1">
                    <mxGeometry relative="1" as="geometry"/>
                </mxCell>
                <mxCell id="563" value="&lt;span style=&quot;font-size: 13px&quot;&gt;夜勤出勤&lt;br style=&quot;font-size: 13px&quot;&gt;&lt;/span&gt;" style="rounded=0;whiteSpace=wrap;html=1;align=left;verticalAlign=top;fontSize=13;spacing=2;" parent="1" vertex="1">
                    <mxGeometry x="840" y="1520" width="100" height="30" as="geometry"/>
                </mxCell>
            </root>
        </mxGraphModel>
    </diagram>
    <diagram id="GC2mZp-eliTmwVE0-EQn" name="タイミング図">
        <mxGraphModel dx="1374" dy="544" grid="1" gridSize="10" guides="1" tooltips="1" connect="1" arrows="1" fold="1" page="1" pageScale="1" pageWidth="1169" pageHeight="827" math="0" shadow="0">
            <root>
                <mxCell id="uFFxeDsAcsZEt6mVLsAy-0"/>
                <mxCell id="uFFxeDsAcsZEt6mVLsAy-1" parent="uFFxeDsAcsZEt6mVLsAy-0"/>
                <mxCell id="cWa9Pjb9JkdC5c4ndMY4-25" style="edgeStyle=orthogonalEdgeStyle;html=1;fontSize=16;fontColor=default;endArrow=classic;endFill=1;" parent="uFFxeDsAcsZEt6mVLsAy-1" source="cWa9Pjb9JkdC5c4ndMY4-1" target="cWa9Pjb9JkdC5c4ndMY4-4" edge="1">
                    <mxGeometry relative="1" as="geometry"/>
                </mxCell>
                <mxCell id="cWa9Pjb9JkdC5c4ndMY4-1" value="勤怠エクセル作成" style="shape=note2;boundedLbl=1;whiteSpace=wrap;html=1;size=25;verticalAlign=top;align=center;fontSize=16;fontColor=default;" parent="uFFxeDsAcsZEt6mVLsAy-1" vertex="1">
                    <mxGeometry x="270" y="40" width="90" height="110" as="geometry"/>
                </mxCell>
                <mxCell id="cWa9Pjb9JkdC5c4ndMY4-2" value="社員" style="text;html=1;strokeColor=none;fillColor=none;align=center;verticalAlign=middle;whiteSpace=wrap;rounded=0;fontSize=16;fontColor=default;" parent="uFFxeDsAcsZEt6mVLsAy-1" vertex="1">
                    <mxGeometry x="30" y="80" width="160" height="30" as="geometry"/>
                </mxCell>
                <mxCell id="cWa9Pjb9JkdC5c4ndMY4-3" value="今回のソフト" style="text;html=1;strokeColor=none;fillColor=none;align=center;verticalAlign=middle;whiteSpace=wrap;rounded=0;fontSize=16;fontColor=default;" parent="uFFxeDsAcsZEt6mVLsAy-1" vertex="1">
                    <mxGeometry x="40" y="280" width="160" height="30" as="geometry"/>
                </mxCell>
                <mxCell id="cWa9Pjb9JkdC5c4ndMY4-26" style="edgeStyle=orthogonalEdgeStyle;html=1;fontSize=16;fontColor=default;endArrow=classic;endFill=1;entryX=0.5;entryY=0;entryDx=0;entryDy=0;" parent="uFFxeDsAcsZEt6mVLsAy-1" source="cWa9Pjb9JkdC5c4ndMY4-4" target="cWa9Pjb9JkdC5c4ndMY4-29" edge="1">
                    <mxGeometry relative="1" as="geometry">
                        <mxPoint x="740" y="500" as="targetPoint"/>
                    </mxGeometry>
                </mxCell>
                <mxCell id="cWa9Pjb9JkdC5c4ndMY4-32" value="一致した場合" style="edgeLabel;html=1;align=center;verticalAlign=middle;resizable=0;points=[];fontSize=16;fontColor=default;" parent="cWa9Pjb9JkdC5c4ndMY4-26" vertex="1" connectable="0">
                    <mxGeometry x="-0.4705" relative="1" as="geometry">
                        <mxPoint x="-1" as="offset"/>
                    </mxGeometry>
                </mxCell>
                <mxCell id="xza8FR8Zr-br7byPEPtf-0" style="edgeStyle=orthogonalEdgeStyle;html=1;entryX=0;entryY=0.5;entryDx=0;entryDy=0;entryPerimeter=0;" parent="uFFxeDsAcsZEt6mVLsAy-1" source="cWa9Pjb9JkdC5c4ndMY4-4" target="cWa9Pjb9JkdC5c4ndMY4-6" edge="1">
                    <mxGeometry relative="1" as="geometry">
                        <Array as="points">
                            <mxPoint x="310" y="290"/>
                            <mxPoint x="310" y="525"/>
                        </Array>
                    </mxGeometry>
                </mxCell>
                <mxCell id="xza8FR8Zr-br7byPEPtf-1" value="一致しなかった場合" style="edgeLabel;html=1;align=center;verticalAlign=middle;resizable=0;points=[];fontSize=16;" parent="xza8FR8Zr-br7byPEPtf-0" vertex="1" connectable="0">
                    <mxGeometry x="-0.789" relative="1" as="geometry">
                        <mxPoint x="-43" as="offset"/>
                    </mxGeometry>
                </mxCell>
                <mxCell id="xza8FR8Zr-br7byPEPtf-2" value="タイムレコーダーかCSVを直す" style="edgeLabel;html=1;align=center;verticalAlign=middle;resizable=0;points=[];fontSize=16;" parent="xza8FR8Zr-br7byPEPtf-0" vertex="1" connectable="0">
                    <mxGeometry x="0.115" relative="1" as="geometry">
                        <mxPoint x="160" y="-44" as="offset"/>
                    </mxGeometry>
                </mxCell>
                <mxCell id="cWa9Pjb9JkdC5c4ndMY4-4" value="比較" style="rounded=1;whiteSpace=wrap;html=1;fontSize=16;fontColor=default;" parent="uFFxeDsAcsZEt6mVLsAy-1" vertex="1">
                    <mxGeometry x="590" y="260" width="120" height="60" as="geometry"/>
                </mxCell>
                <mxCell id="cWa9Pjb9JkdC5c4ndMY4-5" value="タイムレコーダーのアプリケーション" style="text;html=1;strokeColor=none;fillColor=none;align=center;verticalAlign=middle;whiteSpace=wrap;rounded=0;fontSize=16;fontColor=default;" parent="uFFxeDsAcsZEt6mVLsAy-1" vertex="1">
                    <mxGeometry x="40" y="490" width="160" height="70" as="geometry"/>
                </mxCell>
                <mxCell id="cWa9Pjb9JkdC5c4ndMY4-30" style="edgeStyle=orthogonalEdgeStyle;html=1;entryX=0;entryY=0.5;entryDx=0;entryDy=0;fontSize=16;fontColor=default;endArrow=classic;endFill=1;exitX=0;exitY=0;exitDx=90;exitDy=67.5;exitPerimeter=0;" parent="uFFxeDsAcsZEt6mVLsAy-1" source="cWa9Pjb9JkdC5c4ndMY4-6" target="cWa9Pjb9JkdC5c4ndMY4-29" edge="1">
                    <mxGeometry relative="1" as="geometry"/>
                </mxCell>
                <mxCell id="cWa9Pjb9JkdC5c4ndMY4-6" value="CSV作成" style="shape=note2;boundedLbl=1;whiteSpace=wrap;html=1;size=25;verticalAlign=top;align=center;fontSize=16;fontColor=default;" parent="uFFxeDsAcsZEt6mVLsAy-1" vertex="1">
                    <mxGeometry x="430" y="470" width="90" height="110" as="geometry"/>
                </mxCell>
                <mxCell id="cWa9Pjb9JkdC5c4ndMY4-9" value="給与のシステム" style="text;html=1;strokeColor=none;fillColor=none;align=center;verticalAlign=middle;whiteSpace=wrap;rounded=0;fontSize=16;fontColor=default;" parent="uFFxeDsAcsZEt6mVLsAy-1" vertex="1">
                    <mxGeometry x="40" y="710" width="160" height="70" as="geometry"/>
                </mxCell>
                <mxCell id="cWa9Pjb9JkdC5c4ndMY4-10" value="取込" style="rounded=1;whiteSpace=wrap;html=1;fontSize=16;fontColor=default;" parent="uFFxeDsAcsZEt6mVLsAy-1" vertex="1">
                    <mxGeometry x="810" y="715" width="120" height="60" as="geometry"/>
                </mxCell>
                <mxCell id="cWa9Pjb9JkdC5c4ndMY4-12" value="" style="endArrow=none;html=1;fontSize=16;fontColor=default;" parent="uFFxeDsAcsZEt6mVLsAy-1" edge="1">
                    <mxGeometry width="50" height="50" relative="1" as="geometry">
                        <mxPoint x="20" y="210" as="sourcePoint"/>
                        <mxPoint x="1140" y="210" as="targetPoint"/>
                    </mxGeometry>
                </mxCell>
                <mxCell id="cWa9Pjb9JkdC5c4ndMY4-13" value="" style="endArrow=none;html=1;fontSize=16;fontColor=default;" parent="uFFxeDsAcsZEt6mVLsAy-1" edge="1">
                    <mxGeometry width="50" height="50" relative="1" as="geometry">
                        <mxPoint x="20" y="400" as="sourcePoint"/>
                        <mxPoint x="1140" y="400" as="targetPoint"/>
                    </mxGeometry>
                </mxCell>
                <mxCell id="cWa9Pjb9JkdC5c4ndMY4-14" value="" style="endArrow=none;html=1;fontSize=16;fontColor=default;" parent="uFFxeDsAcsZEt6mVLsAy-1" edge="1">
                    <mxGeometry width="50" height="50" relative="1" as="geometry">
                        <mxPoint x="20" y="650" as="sourcePoint"/>
                        <mxPoint x="1140" y="650" as="targetPoint"/>
                    </mxGeometry>
                </mxCell>
                <mxCell id="cWa9Pjb9JkdC5c4ndMY4-17" value="" style="endArrow=none;dashed=1;html=1;dashPattern=1 3;strokeWidth=2;fontSize=16;fontColor=default;" parent="uFFxeDsAcsZEt6mVLsAy-1" edge="1">
                    <mxGeometry width="50" height="50" relative="1" as="geometry">
                        <mxPoint x="220" y="810" as="sourcePoint"/>
                        <mxPoint x="220" y="10.000000000000114" as="targetPoint"/>
                    </mxGeometry>
                </mxCell>
                <mxCell id="cWa9Pjb9JkdC5c4ndMY4-18" value="" style="endArrow=none;dashed=1;html=1;dashPattern=1 3;strokeWidth=2;fontSize=16;fontColor=default;" parent="uFFxeDsAcsZEt6mVLsAy-1" edge="1">
                    <mxGeometry width="50" height="50" relative="1" as="geometry">
                        <mxPoint x="390" y="810" as="sourcePoint"/>
                        <mxPoint x="390" y="10.000000000000114" as="targetPoint"/>
                    </mxGeometry>
                </mxCell>
                <mxCell id="cWa9Pjb9JkdC5c4ndMY4-19" value="" style="endArrow=none;dashed=1;html=1;dashPattern=1 3;strokeWidth=2;fontSize=16;fontColor=default;" parent="uFFxeDsAcsZEt6mVLsAy-1" edge="1">
                    <mxGeometry width="50" height="50" relative="1" as="geometry">
                        <mxPoint x="560" y="810" as="sourcePoint"/>
                        <mxPoint x="560" y="10.000000000000114" as="targetPoint"/>
                    </mxGeometry>
                </mxCell>
                <mxCell id="cWa9Pjb9JkdC5c4ndMY4-7" style="edgeStyle=orthogonalEdgeStyle;html=1;fontSize=16;fontColor=default;endArrow=classic;endFill=1;" parent="uFFxeDsAcsZEt6mVLsAy-1" source="cWa9Pjb9JkdC5c4ndMY4-6" target="cWa9Pjb9JkdC5c4ndMY4-4" edge="1">
                    <mxGeometry relative="1" as="geometry"/>
                </mxCell>
                <mxCell id="cWa9Pjb9JkdC5c4ndMY4-28" value="" style="endArrow=none;dashed=1;html=1;dashPattern=1 3;strokeWidth=2;fontSize=16;fontColor=default;" parent="uFFxeDsAcsZEt6mVLsAy-1" edge="1">
                    <mxGeometry width="50" height="50" relative="1" as="geometry">
                        <mxPoint x="750" y="800" as="sourcePoint"/>
                        <mxPoint x="750" y="1.1368683772161603e-13" as="targetPoint"/>
                    </mxGeometry>
                </mxCell>
                <mxCell id="cWa9Pjb9JkdC5c4ndMY4-31" style="edgeStyle=orthogonalEdgeStyle;html=1;fontSize=16;fontColor=default;endArrow=classic;endFill=1;" parent="uFFxeDsAcsZEt6mVLsAy-1" source="cWa9Pjb9JkdC5c4ndMY4-29" target="cWa9Pjb9JkdC5c4ndMY4-10" edge="1">
                    <mxGeometry relative="1" as="geometry"/>
                </mxCell>
                <mxCell id="cWa9Pjb9JkdC5c4ndMY4-29" value="" style="rhombus;whiteSpace=wrap;html=1;fontSize=16;fontColor=default;" parent="uFFxeDsAcsZEt6mVLsAy-1" vertex="1">
                    <mxGeometry x="830" y="520" width="80" height="80" as="geometry"/>
                </mxCell>
                <mxCell id="cWa9Pjb9JkdC5c4ndMY4-33" value="2022/11/16時点のフロー" style="text;html=1;strokeColor=none;fillColor=none;align=center;verticalAlign=middle;whiteSpace=wrap;rounded=0;fontSize=16;fontColor=default;" parent="uFFxeDsAcsZEt6mVLsAy-1" vertex="1">
                    <mxGeometry x="860" y="20" width="250" height="30" as="geometry"/>
                </mxCell>
            </root>
        </mxGraphModel>
    </diagram>
</mxfile>
